<?xml version="1.0" encoding="UTF-8"?>
<!DOCTYPE svg PUBLIC "-//W3C//DTD SVG 1.1//EN" "http://www.w3.org/Graphics/SVG/1.1/DTD/svg11.dtd">
<!-- Creator: CorelDRAW X7 -->
<svg xmlns="http://www.w3.org/2000/svg" xml:space="preserve" width="144px" height="144px" version="1.1" style="shape-rendering:geometricPrecision; text-rendering:geometricPrecision; image-rendering:optimizeQuality; fill-rule:evenodd; clip-rule:evenodd"
viewBox="0 0 144 144"
 xmlns:xlink="http://www.w3.org/1999/xlink">
 <defs>
  <style type="text/css">
   <![CDATA[
    .fil1 {fill:#FEFEFE}
    .fil0 {fill:#848688}
   ]]>
  </style>
 </defs>
 <g id="Layer_x0020_1">
  <metadata id="CorelCorpID_0Corel-Layer"/>
  <rect class="fil0" width="144" height="144" rx="25" ry="25"/>
  <path class="fil1" d="M72 27c25,0 45,20 45,45 0,11 -4,21 -10,29 5,4 13,15 2,30 -6,-7 -12,-13 -22,-16 -5,2 -10,2 -15,2 -25,0 -45,-20 -45,-45 0,-11 4,-21 10,-29 -5,-4 -13,-15 -2,-30 6,7 12,13 22,16 5,-2 10,-2 15,-2zm19 45l-14 -8 -14 -8 0 0c2,5 3,10 3,16 0,5 -1,11 -3,16l0 0 14 -8 14 -8zm-19 -24c13,0 24,11 24,24 0,13 -11,24 -24,24 -13,0 -24,-11 -24,-24 0,-13 11,-24 24,-24z"/>
 </g>
</svg>
