<?xml version="1.0" encoding="UTF-8"?>
<!DOCTYPE svg PUBLIC "-//W3C//DTD SVG 1.1//EN" "http://www.w3.org/Graphics/SVG/1.1/DTD/svg11.dtd">
<!-- Creator: CorelDRAW X7 -->
<svg xmlns="http://www.w3.org/2000/svg" xml:space="preserve" width="44px" height="44px" version="1.1" style="shape-rendering:geometricPrecision; text-rendering:geometricPrecision; image-rendering:optimizeQuality; fill-rule:evenodd; clip-rule:evenodd"
viewBox="0 0 44 44"
 xmlns:xlink="http://www.w3.org/1999/xlink">
 <defs>
  <style type="text/css">
   <![CDATA[
    .fil0 {fill:url(#id0)}
   ]]>
  </style>
  <linearGradient id="id0" gradientUnits="userSpaceOnUse" x1="5.21357" y1="4.4352" x2="38.7864" y2="39.5648">
   <stop offset="0" style="stop-opacity:1; stop-color:#0D6842"/>
   <stop offset="0.580392" style="stop-opacity:1; stop-color:#60E82E"/>
   <stop offset="1" style="stop-opacity:1; stop-color:#156E44"/>
  </linearGradient>
 </defs>
 <g id="Layer_x0020_1">
  <metadata id="CorelCorpID_0Corel-Layer"/>
  <path class="fil0" d="M22 5c9,0 17,8 17,17 0,4 -2,8 -4,11 2,1 5,6 1,11 -2,-2 -5,-5 -9,-6 -1,1 -3,1 -5,1 -9,0 -17,-8 -17,-17 0,-4 2,-8 4,-11 -2,-1 -5,-6 -1,-11 3,2 5,5 9,6 1,-1 3,-1 5,-1zm7 17l-5 -3 -5 -3 0 0c0,2 1,4 1,6 0,2 -1,4 -1,6l0 0 5 -3 5 -3zm-7 -9c5,0 9,4 9,9 0,5 -4,9 -9,9 -5,0 -9,-4 -9,-9 0,-5 4,-9 9,-9z"/>
 </g>
</svg>
