<?xml version="1.0" encoding="UTF-8"?>
<!DOCTYPE svg PUBLIC "-//W3C//DTD SVG 1.1//EN" "http://www.w3.org/Graphics/SVG/1.1/DTD/svg11.dtd">
<!-- Creator: CorelDRAW X7 -->
<svg xmlns="http://www.w3.org/2000/svg" xml:space="preserve" width="44px" height="44px" version="1.1" style="shape-rendering:geometricPrecision; text-rendering:geometricPrecision; image-rendering:optimizeQuality; fill-rule:evenodd; clip-rule:evenodd"
viewBox="0 0 44 44"
 xmlns:xlink="http://www.w3.org/1999/xlink">
 <defs>
  <style type="text/css">
   <![CDATA[
    .fil0 {fill:#E6E7E8}
    .fil1 {fill:url(#id0)}
   ]]>
  </style>
  <linearGradient id="id0" gradientUnits="userSpaceOnUse" x1="8.22431" y1="7.58531" x2="35.7757" y2="36.4147">
   <stop offset="0" style="stop-opacity:1; stop-color:#0D6842"/>
   <stop offset="0.580392" style="stop-opacity:1; stop-color:#60E82E"/>
   <stop offset="1" style="stop-opacity:1; stop-color:#156E44"/>
  </linearGradient>
 </defs>
 <g id="Layer_x0020_1">
  <metadata id="CorelCorpID_0Corel-Layer"/>
  <g id="_425275208">
   <rect class="fil0" width="44.0012" height="44.0012" rx="8" ry="8"/>
   <path class="fil1" d="M22 8c8,0 14,6 14,14 0,3 -1,7 -3,9 1,1 4,5 0,9 -2,-2 -3,-4 -7,-5 -1,1 -2,1 -4,1 -8,0 -14,-6 -14,-14 0,-3 1,-7 3,-9 -1,-1 -4,-5 0,-9 2,2 3,4 7,5 1,-1 2,-1 4,-1zm6 14l-5 -3 -4 -2 0 0c1,2 1,3 1,5 0,2 0,3 -1,5l0 0 4 -3 5 -2zm-6 -7c4,0 7,3 7,7 0,4 -3,7 -7,7 -4,0 -7,-3 -7,-7 0,-4 3,-7 7,-7z"/>
  </g>
 </g>
</svg>
