<?xml version="1.0" encoding="UTF-8"?>
<!DOCTYPE svg PUBLIC "-//W3C//DTD SVG 1.1//EN" "http://www.w3.org/Graphics/SVG/1.1/DTD/svg11.dtd">
<!-- Creator: CorelDRAW X7 -->
<svg xmlns="http://www.w3.org/2000/svg" xml:space="preserve" width="72px" height="72px" version="1.1" style="shape-rendering:geometricPrecision; text-rendering:geometricPrecision; image-rendering:optimizeQuality; fill-rule:evenodd; clip-rule:evenodd"
viewBox="0 0 72 72"
 xmlns:xlink="http://www.w3.org/1999/xlink">
 <defs>
  <style type="text/css">
   <![CDATA[
    .fil0 {fill:url(#id0)}
   ]]>
  </style>
  <linearGradient id="id0" gradientUnits="userSpaceOnUse" x1="8.53138" y1="7.25693" x2="63.4686" y2="64.7431">
   <stop offset="0" style="stop-opacity:1; stop-color:#0D6842"/>
   <stop offset="0.580392" style="stop-opacity:1; stop-color:#60E82E"/>
   <stop offset="1" style="stop-opacity:1; stop-color:#156E44"/>
  </linearGradient>
 </defs>
 <g id="Layer_x0020_1">
  <metadata id="CorelCorpID_0Corel-Layer"/>
  <path class="fil0" d="M36 8c15,0 28,13 28,28 0,7 -3,13 -7,18 3,2 8,9 2,18 -4,-4 -8,-8 -14,-10 -3,1 -6,2 -9,2 -15,0 -28,-13 -28,-28 0,-7 3,-13 7,-18 -3,-2 -8,-9 -2,-18 4,4 8,8 14,10 3,-1 6,-2 9,-2zm12 28l-9 -5 -9 -5 0 0c1,3 2,7 2,10 0,3 -1,7 -2,10l0 0 9 -5 9 -5zm-12 -14c8,0 14,6 14,14 0,8 -6,14 -14,14 -8,0 -14,-6 -14,-14 0,-8 6,-14 14,-14z"/>
 </g>
</svg>
