<?xml version="1.0" encoding="UTF-8"?>
<!DOCTYPE svg PUBLIC "-//W3C//DTD SVG 1.1//EN" "http://www.w3.org/Graphics/SVG/1.1/DTD/svg11.dtd">
<!-- Creator: CorelDRAW X7 -->
<svg xmlns="http://www.w3.org/2000/svg" xml:space="preserve" width="72px" height="72px" version="1.1" style="shape-rendering:geometricPrecision; text-rendering:geometricPrecision; image-rendering:optimizeQuality; fill-rule:evenodd; clip-rule:evenodd"
viewBox="0 0 72 72"
 xmlns:xlink="http://www.w3.org/1999/xlink">
 <defs>
  <style type="text/css">
   <![CDATA[
    .fil1 {fill:#FEFEFE}
    .fil0 {fill:#848688}
   ]]>
  </style>
 </defs>
 <g id="Layer_x0020_1">
  <metadata id="CorelCorpID_0Corel-Layer"/>
  <rect class="fil0" width="72.0024" height="72.0024" rx="13" ry="13"/>
  <path class="fil1" d="M36 13c13,0 23,10 23,23 0,6 -2,11 -6,15 3,2 7,7 2,15 -4,-4 -7,-7 -12,-8 -2,0 -4,1 -7,1 -13,0 -23,-10 -23,-23 0,-6 2,-11 6,-15 -3,-2 -7,-7 -2,-15 4,4 7,7 12,8 2,0 4,-1 7,-1zm9 23l-7 -4 -7 -4 0 0c1,2 2,5 2,8 0,3 -1,5 -2,8l0 0 7 -4 7 -4zm-9 -12c7,0 12,5 12,12 0,7 -5,12 -12,12 -7,0 -12,-5 -12,-12 0,-7 5,-12 12,-12z"/>
 </g>
</svg>
